<?xml version="1.0" standalone="no"?>
<!DOCTYPE svg PUBLIC "-//W3C//DTD SVG 20010904//EN"
 "http://www.w3.org/TR/2001/REC-SVG-20010904/DTD/svg10.dtd">
<svg version="1.0" xmlns="http://www.w3.org/2000/svg"
 width="1024.000000pt" height="1024.000000pt" viewBox="0 0 1024.000000 1024.000000"
 preserveAspectRatio="xMidYMid meet">
<metadata>
Created by potrace 1.11, written by Peter Selinger 2001-2013
</metadata>
<g transform="translate(0.000000,1024.000000) scale(0.100000,-0.100000)"
fill="#000000" stroke="none">
<path d="M4997 6655 c-1 -2 -31 -5 -67 -9 -424 -42 -823 -238 -1117 -548 -32
-33 -63 -66 -69 -72 -8 -8 -517 -11 -1878 -11 l-1868 0 6 -63 c18 -171 142
-331 336 -431 67 -35 175 -74 234 -85 102 -19 92 -11 105 -85 30 -168 156
-319 344 -413 67 -33 207 -78 246 -78 28 0 42 -16 47 -51 28 -185 149 -340
343 -435 69 -33 181 -71 241 -80 19 -3 36 -7 37 -7 0 -1 4 -25 6 -53 28 -253
305 -480 637 -519 30 -4 307 -7 615 -7 l560 -1 80 -82 c231 -238 537 -412 850
-485 79 -18 100 -22 225 -40 66 -10 377 -6 440 5 227 41 367 84 536 165 191
92 404 252 545 409 l63 71 631 0 c392 0 654 4 695 11 35 5 94 22 130 36 212
84 343 246 349 433 2 36 4 66 5 67 1 2 42 10 91 18 298 52 501 243 508 477 2
37 5 69 8 72 3 3 40 12 82 20 229 44 424 161 528 317 31 46 69 154 69 195 0
18 6 24 21 24 41 0 185 42 256 75 89 41 151 83 214 146 94 93 143 191 155 311
l6 63 -1882 0 -1883 0 -46 49 c-43 46 -98 99 -166 162 -170 157 -494 323 -740
380 -26 6 -185 34 -225 40 -42 6 -297 13 -303 9z m323 -49 c19 -4 46 -8 60
-11 14 -3 41 -7 60 -10 63 -10 222 -56 297 -86 411 -163 737 -463 933 -857 65
-132 131 -322 147 -427 2 -16 11 -68 18 -115 14 -85 14 -380 0 -465 -44 -279
-134 -512 -280 -730 -285 -423 -708 -689 -1213 -761 -101 -14 -348 -20 -401
-9 -13 2 -48 7 -77 10 -142 14 -339 74 -511 155 -542 257 -909 773 -982 1380
-14 117 -5 410 15 490 3 14 8 39 11 55 8 54 53 205 83 280 66 165 164 335 273
470 62 78 215 224 300 288 257 193 584 322 871 343 45 4 82 8 84 9 6 5 276 -3
312 -9z m-1620 -633 c0 -1 -23 -35 -51 -75 -67 -93 -159 -262 -199 -366 l-33
-82 -1386 3 c-762 1 -1402 6 -1421 11 -258 59 -442 183 -525 351 -19 39 -37
91 -40 116 l-7 46 1831 0 c1007 0 1831 -2 1831 -4z m6500 -23 c0 -39 -36 -137
-69 -189 -83 -129 -230 -228 -420 -283 l-76 -22 -1422 -3 -1421 -4 -12 38
c-24 74 -131 281 -194 377 -36 53 -68 101 -70 105 -3 4 825 8 1839 8 l1845 0
0 -27z m-6804 -578 c-13 -36 -39 -149 -51 -217 -7 -43 -19 -167 -24 -256 -1
-16 -80 -17 -1013 -15 l-1013 2 -84 23 c-159 42 -294 120 -381 218 -52 58
-107 171 -116 236 l-7 47 1351 0 1351 0 -13 -38z m6150 -8 c-30 -225 -324
-426 -671 -460 -52 -5 -1814 -9 -1965 -5 -23 1 -25 5 -26 54 -1 108 -23 258
-59 390 -8 32 -15 60 -15 62 0 3 617 5 1371 5 l1372 0 -7 -46z m-680 -571 c-6
-82 -17 -121 -50 -176 -69 -119 -227 -227 -366 -250 -3 0 -29 -6 -59 -13 -42
-10 -240 -13 -819 -14 -722 0 -763 1 -758 18 37 128 66 301 71 427 2 33 3 63
4 68 1 4 447 7 991 7 l991 0 -5 -67z m-5545 47 c0 -3 2 -25 4 -49 10 -159 40
-337 71 -424 8 -24 11 -43 5 -46 -19 -12 -1414 -4 -1481 8 -226 42 -398 145
-497 299 -52 80 -87 197 -65 211 12 7 1962 8 1963 1z m4939 -539 c13 -2 -2
-135 -21 -186 -18 -48 -69 -128 -103 -160 -56 -53 -153 -110 -228 -134 -101
-33 -179 -36 -788 -35 -322 1 -589 2 -594 3 -5 0 0 11 11 24 68 73 183 288
252 468 l9 24 728 -1 c401 -1 731 -2 734 -3z m-4805 -102 c51 -123 136 -274
203 -365 34 -46 62 -85 62 -87 0 -5 -1109 1 -1150 7 -218 32 -411 140 -511
287 -40 60 -79 160 -79 206 l0 28 722 0 721 -1 32 -75z"/>
<path d="M5155 6584 c-71 -36 -111 -104 -118 -195 -9 -112 49 -211 132 -225
74 -12 105 -7 140 22 36 30 61 98 43 116 -8 8 -13 6 -18 -8 -25 -77 -44 -99
-94 -109 -36 -7 -87 20 -107 57 -19 36 -25 161 -10 230 11 54 57 98 100 98 44
0 73 -24 90 -73 l13 -39 32 52 c18 28 32 53 32 56 0 2 -10 2 -22 1 -12 -2 -43
5 -70 15 -59 22 -103 23 -143 2z"/>
<path d="M4825 6566 c-59 -12 -59 -13 -33 -25 26 -13 33 -32 44 -116 2 -16 11
-76 20 -133 15 -95 15 -105 0 -121 -16 -18 -22 -36 -8 -28 4 3 30 7 59 11 28
3 58 8 66 12 8 3 18 1 21 -4 3 -5 -29 -15 -71 -22 -43 -8 -72 -15 -65 -18 14
-4 154 16 162 24 3 3 -8 16 -24 29 -16 13 -31 30 -32 37 -43 285 -46 312 -35
331 18 28 7 32 -12 4 -13 -20 -13 -33 -2 -97 7 -41 16 -97 19 -125 4 -27 9
-61 12 -75 3 -14 8 -36 10 -50 4 -18 2 -22 -6 -14 -6 6 -12 22 -15 35 -2 13
-9 58 -15 99 -6 41 -14 86 -16 100 -16 92 -16 108 1 134 17 25 17 26 -1 25
-11 -1 -46 -7 -79 -13z"/>
<path d="M5213 6552 c-49 -7 -79 -74 -82 -182 -2 -78 17 -138 50 -159 l24 -15
-22 24 c-30 35 -42 90 -37 166 10 132 54 181 127 142 19 -10 20 -9 9 4 -15 18
-38 25 -69 20z"/>
<path d="M5370 6500 c-18 -28 -30 -53 -27 -56 3 -3 13 7 23 23 9 15 25 40 36
56 10 15 14 27 9 27 -5 0 -23 -23 -41 -50z"/>
<path d="M4635 6530 c-11 -5 -90 -37 -176 -70 l-156 -61 40 -39 c21 -22 40
-40 42 -40 1 0 0 11 -3 25 -3 16 2 33 13 45 20 22 75 44 75 30 0 -5 -11 -12
-25 -16 -14 -3 -30 -14 -35 -24 -13 -23 -13 -60 -1 -60 5 0 7 9 4 19 -5 21 28
61 51 61 8 0 36 -58 70 -147 49 -125 56 -151 46 -171 -6 -14 -9 -26 -8 -27 2
-1 33 10 71 25 37 15 69 25 72 21 4 -8 -91 -51 -113 -51 -6 0 -12 -4 -12 -10
0 -14 2 -14 86 22 l75 31 -34 20 c-31 18 -41 35 -95 173 l-59 154 35 10 c28 7
40 6 52 -5 14 -12 15 -8 17 41 2 56 1 58 -32 44z m-19 -63 c4 -4 -4 -7 -17 -7
-55 -1 -55 -9 6 -166 32 -82 65 -158 74 -168 15 -18 15 -18 -5 -8 -15 8 -39
59 -83 173 -34 89 -61 162 -59 163 32 20 71 26 84 13z"/>
<path d="M4687 6523 c-4 -3 -7 -29 -7 -56 0 -63 6 -58 13 11 6 53 5 57 -6 45z"/>
<path d="M5563 6505 c-43 -18 -67 -66 -60 -122 2 -23 0 -43 -5 -43 -20 0 22
-42 89 -90 39 -27 73 -55 76 -62 4 -8 6 -7 6 4 1 11 -29 39 -79 74 -44 30 -80
60 -80 65 0 11 139 -87 157 -110 31 -40 6 -106 -45 -116 -27 -5 -92 13 -92 25
0 6 -6 10 -14 10 -19 0 -49 67 -43 96 2 13 3 24 2 24 -2 0 -25 -20 -51 -45
-34 -31 -44 -45 -31 -45 9 0 52 -20 95 -44 42 -25 93 -47 113 -49 113 -14 190
115 115 195 -11 13 -42 38 -67 55 -25 17 -46 38 -46 45 0 7 -4 21 -8 30 -4 10
1 24 15 38 24 24 51 20 88 -13 12 -11 22 -16 22 -9 0 17 -51 52 -76 52 -46 0
-81 -59 -52 -88 8 -8 8 -12 1 -12 -14 0 -31 49 -25 73 2 9 17 24 33 33 24 12
37 13 64 4 43 -14 57 -32 62 -77 2 -21 6 -39 8 -41 2 -2 19 13 39 34 20 21 38
35 42 31 3 -3 -11 -22 -32 -41 -21 -19 -36 -37 -34 -40 3 -2 23 13 46 34 43
40 42 63 -3 67 -12 1 -38 14 -58 28 -37 24 -95 45 -125 45 -8 -1 -29 -7 -47
-15z"/>
<path d="M5378 6285 c-3 -6 -9 -24 -12 -41 -14 -65 -93 -115 -161 -102 -14 3
-25 1 -25 -3 0 -5 23 -9 52 -9 68 0 111 29 138 93 12 27 19 54 17 60 -2 6 -6
7 -9 2z"/>
<path d="M4225 6256 c132 -55 209 -207 159 -312 -9 -19 -35 -51 -58 -70 -38
-34 -39 -35 -9 -20 74 37 112 136 86 224 -27 93 -118 181 -203 196 -26 5 -19
0 25 -18z"/>
<path d="M4080 6238 c-109 -54 -128 -182 -44 -292 66 -86 136 -115 223 -90
107 31 152 139 102 244 -60 126 -183 186 -281 138z m83 -32 c40 -16 120 -105
147 -163 36 -77 20 -131 -45 -153 -46 -15 -91 6 -147 69 -42 47 -88 132 -88
163 0 29 20 64 48 81 33 20 44 21 85 3z"/>
<path d="M4105 6200 c-53 -21 -64 -76 -30 -145 39 -80 152 -183 170 -155 3 6
-2 10 -12 10 -24 0 -97 70 -134 128 -34 54 -39 110 -11 135 10 10 24 17 30 17
7 0 12 5 12 10 0 6 -1 10 -2 9 -2 0 -12 -4 -23 -9z"/>
<path d="M5491 6214 c0 -16 6 -39 14 -50 14 -18 14 -17 5 11 -5 17 -11 39 -13
50 -3 13 -5 9 -6 -11z"/>
<path d="M5760 6205 c0 -8 4 -15 10 -15 5 0 7 7 4 15 -4 8 -8 15 -10 15 -2 0
-4 -7 -4 -15z"/>
<path d="M5748 6140 c-41 -99 -152 -106 -285 -18 -23 16 -52 28 -65 27 -20 0
-20 -2 7 -11 17 -6 48 -23 70 -38 86 -59 167 -68 233 -28 34 21 65 69 60 93
-2 8 -10 -3 -20 -25z"/>
<path d="M6085 6161 c-85 -38 -159 -146 -154 -225 3 -55 21 -87 71 -130 44
-38 82 -45 134 -26 32 13 70 53 55 58 -6 2 -26 -6 -45 -17 -47 -30 -89 -27
-128 8 -57 51 -39 134 48 225 83 87 148 108 199 63 32 -27 40 -78 19 -119 -17
-33 -18 -33 45 -9 27 11 52 17 55 14 3 -4 6 -4 6 0 0 3 -12 19 -27 35 -16 16
-37 44 -48 63 -45 76 -141 101 -230 60z"/>
<path d="M5150 6150 c0 -5 5 -10 11 -10 5 0 7 5 4 10 -3 6 -8 10 -11 10 -2 0
-4 -4 -4 -10z"/>
<path d="M6121 6080 c-77 -61 -137 -163 -120 -205 7 -17 8 -16 8 8 2 56 63
146 135 198 51 37 81 37 117 -2 16 -17 29 -26 29 -20 0 7 -11 23 -25 36 -38
38 -82 34 -144 -15z"/>
<path d="M4969 6096 c-2 -2 -24 -6 -49 -9 -51 -6 -196 -42 -237 -59 -313 -125
-540 -331 -678 -613 -53 -107 -97 -237 -110 -326 -14 -87 -17 -114 -17 -136 0
-36 -17 -27 -34 17 -9 22 -19 40 -23 40 -3 0 -19 -14 -36 -31 -35 -36 -136
-99 -158 -99 -8 0 -20 14 -27 31 -14 32 -62 69 -92 69 -35 0 -68 -24 -88 -65
-31 -63 -29 -125 8 -224 14 -39 17 -42 28 -26 11 14 29 18 91 19 72 1 78 -1
78 -19 0 -13 8 -21 21 -23 18 -3 21 1 17 25 l-4 28 16 -25 c13 -21 15 -22 13
-5 -3 17 4 20 46 23 39 3 53 -1 73 -20 l25 -23 -4 83 c-2 45 0 82 4 82 8 0 12
-28 8 -67 -1 -13 3 -23 7 -23 8 0 9 44 4 109 -1 10 -11 5 -32 -14 -26 -26 -38
-30 -90 -31 -51 -1 -59 1 -59 17 0 10 -5 21 -12 25 -8 5 -9 2 -5 -10 4 -10 7
-24 7 -32 0 -11 16 -14 70 -14 40 0 70 4 70 10 0 6 5 10 12 10 8 0 6 -6 -4
-17 -12 -11 -37 -17 -88 -18 -39 -1 -72 1 -74 4 -2 3 -7 21 -11 39 -6 31 -5
33 42 54 39 17 172 57 193 58 3 0 6 -19 6 -42 0 -60 13 -209 19 -218 3 -4 7
-25 11 -45 3 -21 17 -72 31 -114 145 -440 525 -762 985 -834 173 -28 411 -8
573 48 97 33 303 138 325 165 3 3 14 13 26 21 91 62 221 204 301 328 193 300
241 711 121 1049 -110 312 -330 563 -623 710 -68 34 -222 87 -278 96 -20 3
-55 10 -77 15 -37 8 -313 14 -321 7z m278 -41 c252 -26 506 -150 698 -340 224
-222 346 -509 348 -819 2 -237 -30 -373 -135 -581 -51 -100 -145 -227 -218
-293 -147 -136 -265 -209 -430 -270 -122 -45 -227 -64 -370 -68 -109 -3 -158
0 -282 22 -15 2 -65 16 -110 30 -501 158 -843 633 -833 1154 3 120 9 164 35
272 104 423 445 763 871 867 138 34 269 42 426 26z m-1688 -1170 c26 -23 60
-90 49 -100 -7 -7 -135 -8 -146 -1 -11 7 -6 60 10 91 10 19 9 19 -7 4 -9 -9
-17 -32 -17 -50 -1 -70 -6 -66 88 -61 62 3 85 1 80 -7 -8 -13 -172 -15 -180
-3 -25 41 -3 126 36 142 37 14 55 11 87 -15z"/>
<path d="M5935 5631 c-6 -5 -208 -125 -450 -266 -242 -141 -492 -288 -556
-325 -178 -105 -232 -179 -232 -320 0 -62 5 -85 28 -133 33 -67 88 -120 154
-150 36 -16 66 -21 136 -20 l89 0 38 -41 c21 -23 37 -45 37 -51 0 -5 -19 -41
-43 -78 -36 -57 -55 -76 -112 -110 -68 -41 -70 -41 -170 -42 -106 -1 -154 -17
-154 -50 0 -13 26 -15 164 -15 l164 0 6 24 c6 23 40 41 58 30 5 -3 13 -17 18
-30 9 -23 13 -24 110 -24 60 0 100 4 100 10 0 17 -39 50 -60 51 -11 1 -24 3
-30 4 -5 1 -24 3 -42 4 -28 1 -30 3 -18 16 8 8 60 45 115 82 119 81 146 119
121 175 -8 18 -39 61 -70 96 -31 35 -56 69 -56 75 0 7 11 46 24 87 l24 75 138
91 c119 78 142 90 161 81 17 -7 28 -6 48 7 29 19 30 25 10 72 l-15 36 -32 -20
c-18 -11 -75 -45 -126 -76 -51 -31 -95 -56 -96 -56 -2 0 -48 -27 -101 -60 -91
-55 -101 -64 -132 -122 -51 -96 -101 -131 -181 -129 -154 4 -239 178 -150 307
12 17 34 39 49 48 41 24 126 30 183 12 l48 -15 282 181 c154 99 301 194 325
210 35 24 52 29 79 25 34 -6 72 18 72 46 0 16 -28 57 -40 57 -7 0 -424 -241
-512 -297 -21 -12 -40 -23 -43 -23 -2 0 -30 -16 -60 -36 -54 -34 -105 -43
-111 -19 -1 6 57 48 129 95 73 47 244 158 380 247 237 156 249 163 286 157 34
-5 41 -3 55 19 16 23 15 27 -5 61 -24 41 -22 39 -34 27z m-623 -1250 c14 -2
29 -42 23 -61 -4 -11 -15 -25 -26 -31 -47 -24 -94 31 -65 76 13 20 28 23 68
16z"/>
<path d="M5715 5171 c-16 -11 -160 -96 -319 -189 -274 -160 -290 -168 -315
-156 -100 50 -191 -1 -191 -106 0 -34 6 -48 33 -74 69 -70 151 -53 197 40 24
49 35 57 304 230 154 98 284 177 290 175 41 -15 55 -12 72 14 16 25 16 30 3
54 -19 33 -36 36 -74 12z m-659 -416 c15 -23 15 -27 0 -50 -28 -42 -96 -24
-96 25 0 49 68 67 96 25z"/>
<path d="M4363 5149 c-48 -24 -75 -62 -92 -133 -15 -60 -36 -87 -239 -304 -57
-61 -56 -121 1 -80 17 13 39 30 47 38 9 8 50 44 93 80 57 48 77 71 77 89 0 17
16 39 50 70 39 36 51 54 54 82 9 80 70 118 136 84 55 -28 67 -94 27 -141 -19
-21 -33 -27 -76 -30 -50 -2 -88 -24 -157 -89 -6 -5 -33 -29 -60 -52 -27 -23
-60 -51 -74 -63 -14 -12 -43 -37 -64 -56 -78 -67 -25 -43 142 65 94 60 172
107 174 103 3 -7 233 -192 255 -205 9 -6 9 1 3 24 -5 17 -8 65 -6 107 4 126
61 223 171 296 30 21 55 41 55 45 0 5 -15 11 -32 14 -18 4 -77 15 -130 26 -54
11 -108 23 -120 25 -13 2 -43 9 -68 15 -69 16 -121 13 -167 -10z"/>
<path d="M4409 5031 c-20 -16 -22 -23 -14 -47 14 -39 57 -54 85 -29 25 23 26
57 2 78 -24 22 -44 21 -73 -2z"/>
<path d="M5359 4623 c-13 -43 -24 -82 -24 -87 0 -7 364 -91 612 -141 29 -6 32
-4 38 25 4 17 5 34 2 36 -6 7 -587 244 -597 244 -3 0 -17 -35 -31 -77z"/>
<path d="M6345 5979 c-11 -5 -33 -13 -49 -19 -16 -6 -27 -13 -24 -15 5 -5 128
34 128 41 0 7 -34 3 -55 -7z"/>
<path d="M3820 5929 c-13 -9 -12 -10 3 -5 23 7 58 -10 80 -40 21 -28 26 -79 9
-96 -9 -9 -10 -2 -7 26 4 32 0 42 -24 67 -81 81 -226 -28 -248 -187 -6 -43 -5
-46 13 -36 14 8 27 4 64 -21 25 -16 47 -32 50 -34 2 -2 -1 -12 -7 -22 -6 -10
-8 -24 -3 -31 6 -10 11 -8 21 9 18 27 33 28 19 0 -7 -11 -9 -23 -7 -26 3 -2
10 5 17 16 11 21 12 20 70 -19 47 -32 60 -46 60 -66 0 -14 4 -23 9 -20 18 11
143 207 152 238 11 41 -4 91 -34 111 -30 19 -76 27 -102 17 -20 -7 -22 -5 -23
27 -2 39 -22 67 -64 89 -32 17 -29 16 -48 3z m14 -100 c32 -25 35 -70 6 -117
-22 -36 -21 -36 -87 11 -38 27 -40 32 -31 53 13 28 54 57 68 49 6 -3 10 -1 10
4 0 34 -82 -23 -94 -65 -5 -17 4 -28 50 -58 31 -21 54 -40 51 -43 -3 -2 -33
14 -66 36 -58 40 -59 42 -51 73 20 70 91 98 144 57z m186 -116 c28 -36 25 -61
-13 -121 l-32 -51 -72 47 c-40 26 -73 50 -73 54 0 14 67 94 89 104 30 16 74 1
101 -33z"/>
<path d="M3909 5721 c-13 -10 -32 -32 -42 -49 l-17 -30 61 -42 c33 -23 63 -39
66 -36 3 2 -20 21 -51 42 -31 20 -56 39 -56 42 0 13 55 74 74 82 15 6 16 9 5
9 -9 1 -27 -8 -40 -18z"/>
<path d="M6481 5893 c6 -38 -8 -52 -121 -115 -25 -14 -74 -43 -110 -65 -53
-32 -70 -38 -89 -31 -13 4 -25 7 -26 6 -4 -4 149 -266 164 -281 8 -8 11 -7 11
4 0 8 13 33 29 55 l29 39 -45 0 c-39 0 -49 5 -74 35 -16 19 -29 37 -29 40 0 3
66 45 148 93 110 64 154 85 172 81 25 -5 25 -5 2 7 -27 15 -27 15 -246 -115
-43 -26 -81 -44 -84 -41 -7 6 -14 1 103 70 55 32 121 70 147 86 25 15 48 26
50 25 1 -2 15 -6 30 -10 l27 -6 -37 65 c-32 56 -55 82 -51 58z"/>
<path d="M5952 5820 c59 -82 135 -101 215 -55 23 14 43 30 43 35 0 5 -16 -2
-36 -15 -75 -51 -133 -43 -206 29 -40 40 -41 40 -16 6z"/>
<path d="M4010 5829 c14 -6 35 -15 47 -20 25 -9 52 -46 58 -79 6 -32 -21 -90
-94 -198 -35 -51 -61 -95 -58 -98 5 -6 138 190 155 229 17 40 15 78 -7 110
-24 37 -48 53 -91 61 -32 5 -33 5 -10 -5z"/>
<path d="M6112 5663 c5 -13 118 -204 151 -256 16 -26 31 -46 33 -44 6 6 -170
307 -179 307 -5 0 -7 -3 -5 -7z"/>
<path d="M3577 5485 c-44 -15 -48 -18 -51 -38 -1 -8 -10 -23 -20 -33 -28 -27
-46 -78 -46 -127 0 -85 72 -156 187 -183 122 -28 231 46 238 163 6 94 -69 170
-191 193 -58 11 -85 9 -149 -15 -18 -7 -18 -6 -5 8 34 37 151 41 225 8 120
-53 167 -161 115 -265 -25 -52 -20 -57 8 -7 60 106 17 219 -105 276 -65 31
-151 40 -206 20z m149 -111 c93 -31 140 -84 126 -139 -9 -32 -24 -38 -107 -38
-62 0 -151 28 -192 61 -29 22 -37 70 -17 100 9 13 13 26 11 29 -8 7 -37 -53
-37 -75 0 -33 41 -73 99 -100 65 -28 167 -40 199 -23 12 6 22 8 22 3 0 -20
-61 -35 -116 -28 -114 13 -224 83 -224 140 0 36 18 70 46 87 29 18 109 11 190
-17z"/>
<path d="M6693 5467 c-8 -18 -27 -26 -89 -41 -229 -54 -271 -80 -266 -166 5
-97 45 -155 108 -153 20 1 94 16 166 33 l129 33 30 -22 c33 -25 33 -26 18 37
-18 78 -18 79 -39 45 -17 -29 -28 -33 -149 -62 -72 -17 -140 -31 -151 -31 -35
0 -58 18 -70 55 -20 61 5 77 188 124 96 24 128 29 143 20 12 -6 23 -9 25 -6 2
2 -7 10 -20 17 -22 11 -42 9 -152 -19 -134 -34 -161 -44 -181 -70 -7 -9 -12
-11 -12 -6 0 33 35 50 177 86 135 35 149 37 170 23 13 -9 25 -14 27 -12 6 5
-28 138 -35 138 -4 0 -11 -10 -17 -23z"/>
<path d="M6337 5428 c-36 -67 -29 -72 11 -8 17 27 28 52 23 54 -4 3 -19 -18
-34 -46z"/>
<path d="M6312 5250 c0 -14 2 -19 5 -12 2 6 2 18 0 25 -3 6 -5 1 -5 -13z"/>
<path d="M6310 5217 c0 -2 7 -24 16 -50 19 -57 61 -90 112 -90 21 0 96 15 169
34 129 32 132 33 153 14 11 -10 23 -16 26 -13 3 3 -6 15 -21 26 l-25 20 -133
-34 c-165 -43 -199 -43 -237 -6 -16 16 -32 45 -35 65 -4 21 -11 37 -16 37 -5
0 -9 -1 -9 -3z"/>
<path d="M3820 5062 c0 -8 -54 -64 -98 -101 -12 -10 -36 -24 -52 -31 -29 -12
-32 -11 -68 30 -31 35 -45 43 -79 45 -24 2 -49 -2 -60 -10 -16 -13 -14 -13 18
-4 23 6 46 6 61 0 24 -9 72 -59 80 -82 7 -20 92 27 153 85 l55 51 15 -39 c9
-21 18 -36 21 -34 2 3 -3 22 -13 44 -9 21 -16 42 -15 47 1 4 -2 7 -8 7 -5 0
-10 -4 -10 -8z"/>
<path d="M6369 4983 c-1 -16 -2 -41 -4 -58 -2 -16 -5 -73 -7 -126 -3 -91 -1
-98 24 -130 41 -55 112 -69 163 -31 l20 14 -20 -8 c-11 -5 -41 -9 -67 -9 -39
0 -53 5 -75 28 l-28 28 2 159 c1 88 0 160 -2 160 -3 0 -5 -12 -6 -27z"/>
<path d="M6399 4995 c-1 -11 -3 -36 -5 -55 -1 -19 -4 -75 -6 -125 -3 -106 15
-152 67 -163 28 -6 36 -6 69 -3 7 0 25 12 40 26 l27 25 11 -25 c23 -50 100
-65 153 -29 25 18 17 18 -26 1 -19 -8 -40 -13 -46 -11 -7 1 -17 2 -23 3 -19 2
-60 53 -59 74 0 22 0 22 9 1 11 -28 58 -64 82 -64 28 0 73 26 90 52 39 59 42
163 8 252 -10 27 -11 28 -29 12 -14 -13 -30 -16 -62 -12 -24 2 -50 5 -56 5 -7
1 -13 12 -13 26 0 16 -6 25 -16 25 -10 0 -14 -7 -12 -22 2 -11 -2 -23 -8 -25
-7 -2 -10 6 -6 24 3 16 1 24 -4 20 -5 -5 -10 -13 -10 -18 -1 -5 -2 -13 -3 -18
0 -5 -31 -7 -68 -4 -55 3 -71 9 -85 26 -17 21 -18 21 -19 2z m97 -96 c104 -3
105 -4 99 -62 -7 -61 -29 -106 -53 -109 -49 -5 -59 -3 -85 9 -28 14 -41 47
-41 108 0 28 2 30 34 29 19 -1 54 -2 77 -3 l42 -1 -5 -42 c-3 -24 -15 -56 -26
-71 -20 -28 -20 -29 0 -18 24 13 29 26 38 91 l7 50 -37 1 c-20 1 -40 3 -46 4
-5 1 -26 3 -45 4 -19 0 -35 6 -35 12 0 5 4 8 8 5 5 -3 35 -6 68 -7z m276 -27
c6 -6 13 -30 14 -52 2 -32 -4 -46 -27 -71 -25 -27 -34 -30 -62 -25 -47 10 -69
36 -71 87 0 24 2 45 7 47 4 1 31 2 61 2 47 0 54 -3 59 -22 4 -12 9 -19 13 -16
3 4 3 16 -1 27 -5 17 -15 21 -48 22 -60 1 -86 5 -94 13 -4 4 25 6 65 4 40 -3
78 -10 84 -16z"/>
<path d="M6755 4800 c3 -5 -5 -21 -19 -35 -15 -15 -20 -25 -12 -25 16 0 31 17
40 48 5 14 3 22 -4 22 -6 0 -8 -4 -5 -10z"/>
<path d="M3844 4695 c4 -24 16 -30 16 -7 0 12 -4 22 -9 22 -5 0 -8 -7 -7 -15z"/>
<path d="M3970 4208 c0 -22 -21 -42 -120 -117 -113 -86 -137 -97 -167 -78 -22
14 -15 -2 22 -50 19 -25 35 -51 35 -56 0 -13 -3 -9 -49 51 -19 24 -36 41 -38
38 -6 -5 75 -110 90 -115 6 -2 8 11 5 36 -3 22 -2 47 3 56 9 15 166 143 199
162 8 4 5 -3 -8 -17 -12 -13 -20 -27 -17 -30 3 -3 -21 -63 -55 -133 -50 -106
-58 -131 -48 -144 7 -9 14 -18 15 -20 2 -2 55 36 119 85 134 102 159 115 191
103 32 -12 28 -1 -17 50 -37 40 -40 42 -40 20 0 -13 -4 -29 -8 -36 -9 -14
-145 -123 -149 -119 -2 1 17 44 42 95 25 50 45 96 45 102 0 5 12 7 28 4 26 -5
26 -5 4 5 -13 5 -27 8 -31 6 -4 -3 -29 -53 -56 -113 -27 -59 -55 -115 -63
-123 -20 -20 -17 -13 53 137 55 117 59 122 83 116 25 -6 24 -4 -13 43 -21 27
-43 53 -47 59 -4 5 -8 -3 -8 -17z"/>
<path d="M6170 4120 c0 -5 5 -10 10 -10 6 0 10 5 10 10 0 6 -4 10 -10 10 -5 0
-10 -4 -10 -10z"/>
<path d="M6116 4073 c-35 -45 -36 -48 -17 -51 12 -2 32 -22 46 -46 30 -51 30
-56 8 -57 -10 -1 -4 -5 12 -9 24 -6 26 -8 8 -9 -24 -1 -29 -16 -13 -41 8 -12
13 -13 29 -3 17 11 22 8 41 -25 29 -48 47 -101 45 -129 -2 -21 19 -38 34 -28
10 6 91 110 91 117 0 8 -43 3 -58 -6 -8 -5 -23 -3 -35 3 -24 13 -72 80 -63 88
3 3 15 -11 27 -31 18 -31 46 -56 62 -56 2 0 -11 16 -29 36 -19 19 -34 40 -34
45 0 5 17 8 38 5 21 -2 45 0 53 6 11 8 11 9 -3 5 -16 -6 -28 17 -28 55 0 16 3
16 48 1 50 -17 65 -30 57 -50 -10 -28 13 -10 54 43 24 30 40 58 36 62 -4 4
-10 1 -12 -5 -3 -7 -9 -13 -14 -13 -6 0 -8 4 -5 8 3 5 0 9 -7 10 -7 0 -38 9
-70 19 -57 19 -57 20 -38 38 23 20 19 35 -7 34 -11 0 -12 -2 -4 -6 6 -2 10 -9
7 -14 -4 -5 -21 -3 -40 5 -28 12 -34 12 -37 1 -2 -10 -14 -9 -60 5 -32 10 -56
14 -53 10 3 -5 31 -16 62 -26 31 -10 51 -20 44 -22 -7 -2 -25 1 -42 7 -16 6
-42 16 -59 22 -16 6 -28 14 -26 18 3 4 1 13 -3 19 -5 9 -19 -2 -45 -35z m242
-29 c-2 -12 14 -21 60 -36 35 -10 62 -22 59 -25 -5 -4 -135 34 -146 43 -4 4
19 34 26 34 2 0 3 -7 1 -16z m-178 -45 c0 -5 5 -7 11 -4 19 12 97 -18 103 -39
3 -11 0 -23 -6 -27 -7 -4 -6 -8 3 -12 8 -3 -7 -6 -32 -6 -45 -1 -46 0 -73 49
-15 28 -22 50 -17 50 6 0 11 -5 11 -11z m160 -269 c-40 -48 -59 -64 -44 -37
17 29 77 98 81 93 3 -3 -13 -28 -37 -56z"/>
<path d="M6192 3985 c16 -44 34 -65 55 -65 12 0 23 4 23 9 0 5 -9 7 -20 4 -11
-3 -20 -1 -20 3 0 5 -10 20 -21 34 -11 14 -19 21 -17 15z"/>
<path d="M6320 4096 c0 -2 7 -7 16 -10 8 -3 12 -2 9 4 -6 10 -25 14 -25 6z"/>
<path d="M3827 4024 c-43 -36 -76 -69 -73 -72 4 -3 15 4 26 15 10 12 46 42 79
68 34 25 61 48 61 51 0 12 -22 -3 -93 -62z"/>
<path d="M6543 3996 c2 -6 -13 -31 -33 -56 -43 -53 -63 -85 -37 -60 24 23 97
114 97 121 0 3 -7 6 -15 6 -9 0 -14 -5 -12 -11z"/>
<path d="M4100 3963 c-8 -4 -71 -49 -139 -101 l-123 -95 -19 24 c-10 13 -19
20 -19 14 0 -5 9 -21 20 -35 l19 -25 28 26 c51 47 243 189 256 189 7 0 18 -5
25 -12 8 -8 12 -8 12 -1 0 19 -31 27 -60 16z"/>
<path d="M4182 3948 c4 -22 -11 -43 -97 -139 -63 -72 -108 -114 -121 -114 -27
0 -21 -10 31 -57 25 -22 43 -43 41 -46 -3 -2 -26 14 -52 37 -26 23 -49 39 -52
37 -2 -3 13 -20 34 -38 21 -18 46 -41 56 -50 10 -10 18 -17 19 -15 1 1 2 19 3
40 2 26 12 47 32 70 105 111 164 182 164 193 0 9 -1 7 -109 -116 -99 -113
-104 -118 -99 -102 2 8 46 62 98 122 74 84 101 109 125 111 l29 4 -54 45 c-51
42 -53 43 -48 18z"/>
<path d="M6352 3920 c0 -14 2 -19 5 -12 2 6 2 18 0 25 -3 6 -5 1 -5 -13z"/>
<path d="M5932 3887 l-43 -32 28 -7 c19 -6 46 -32 86 -88 31 -44 55 -80 53
-80 -3 0 -47 22 -98 50 -84 45 -93 52 -91 76 2 30 -13 21 -19 -10 -2 -14 20
-31 105 -76 60 -31 116 -65 125 -75 9 -9 -28 7 -83 36 -175 93 -174 93 -164
112 14 25 5 21 -61 -22 -32 -21 -85 -49 -117 -60 -75 -28 -247 -94 -251 -97
-2 -2 12 -19 32 -39 l36 -36 0 31 c0 23 7 35 32 50 l33 20 12 -24 c7 -13 33
-77 59 -142 39 -102 44 -123 35 -147 -7 -22 -7 -28 2 -24 95 38 117 45 121 38
3 -4 -18 -16 -47 -26 -29 -10 -56 -22 -62 -27 -5 -4 15 0 45 11 105 36 107 39
62 58 -28 13 -34 26 -113 238 -23 60 -23 55 0 55 11 0 23 5 27 11 7 12 -34 3
-49 -11 -9 -8 74 -239 99 -277 12 -20 12 -22 -1 -17 -8 3 -23 29 -34 57 -11
29 -35 94 -55 145 -20 52 -34 98 -31 102 3 5 19 11 36 15 24 5 36 2 55 -16
l24 -22 0 46 c0 26 4 47 9 47 4 0 6 -24 3 -52 -2 -29 -1 -50 3 -46 4 4 9 20
10 35 4 58 5 63 15 63 12 0 147 -193 166 -238 11 -25 12 -37 3 -53 -12 -24
-13 -24 60 25 36 25 40 31 24 37 -27 10 -106 105 -148 178 -4 7 49 -17 119
-54 114 -60 130 -66 153 -56 l25 11 -35 48 c-88 123 -145 209 -151 229 -4 12
-2 31 4 43 15 27 3 24 -48 -13z m-33 -276 c39 -55 76 -101 83 -104 7 -2 10 -7
6 -11 -3 -4 -20 7 -36 26 -45 49 -142 188 -133 188 5 0 41 -45 80 -99z"/>
<path d="M5996 3894 c-12 -32 -4 -48 84 -174 50 -71 90 -133 90 -139 0 -6 -9
-15 -21 -21 -11 -7 -18 -14 -16 -17 9 -8 58 29 54 41 -3 6 -46 70 -96 141 -77
108 -91 135 -87 158 6 30 2 36 -8 11z"/>
<path d="M4250 3859 c0 -5 5 -7 12 -3 8 5 9 -5 5 -34 -3 -23 -1 -42 4 -42 4 0
6 -8 2 -17 -6 -17 -5 -17 14 0 23 20 43 22 66 5 15 -12 10 -24 -54 -131 -57
-95 -77 -121 -102 -130 -21 -7 -26 -12 -16 -16 33 -14 109 -64 109 -72 0 -5
-25 7 -56 26 -31 20 -58 34 -60 32 -4 -4 35 -32 99 -71 27 -16 27 -16 27 10 0
15 -8 32 -17 39 -15 11 -10 24 57 136 106 179 92 165 129 133 18 -14 30 -29
27 -31 -3 -3 -15 4 -27 16 -14 13 -26 18 -32 12 -17 -17 -156 -255 -152 -260
6 -6 1 -13 75 114 84 146 77 138 110 119 19 -12 26 -22 22 -36 -4 -18 -1 -17
37 7 23 16 38 31 34 35 -10 8 -195 120 -246 149 -41 23 -67 27 -67 10z m101
-65 c17 -8 29 -18 26 -21 -3 -2 -15 1 -27 7 -12 6 -33 9 -46 6 -13 -4 -24 -2
-24 3 0 5 8 12 18 14 9 3 18 5 20 6 2 0 17 -6 33 -15z"/>
<path d="M4536 3654 c-21 -14 -35 -28 -33 -31 3 -3 20 6 39 19 18 12 35 24 37
25 2 2 2 5 0 8 -3 2 -22 -7 -43 -21z"/>
<path d="M4724 3621 c10 -11 16 -23 13 -28 -3 -4 -8 -26 -11 -47 -10 -65 -17
-84 -29 -83 -31 1 -47 -4 -47 -14 0 -6 8 -8 18 -5 9 3 24 1 32 -4 11 -7 6 -10
-20 -11 -31 -2 -32 -2 -7 -6 25 -4 27 -7 22 -36 -11 -58 -13 -72 -14 -79 -1
-4 -10 -10 -21 -13 -31 -10 -15 -22 38 -30 26 -3 54 -11 62 -16 14 -10 -42 -5
-95 7 -18 4 -18 4 -3 -6 9 -5 38 -13 65 -16 26 -3 51 -8 55 -10 15 -9 8 24 -7
36 -11 9 -14 23 -11 44 l6 31 -15 -30 c-14 -29 -14 -29 -14 -5 1 14 6 48 13
75 9 41 15 49 31 47 11 -1 46 -4 79 -7 54 -3 61 -1 87 25 49 48 35 121 -29
154 -30 15 -159 46 -193 46 -21 0 -21 -1 -5 -19z m164 -50 c12 -6 22 -17 23
-24 0 -7 2 -22 5 -34 5 -30 -25 -63 -61 -64 -65 -4 -63 -5 -50 59 9 44 15 56
28 54 9 -2 17 1 17 6 0 5 -10 9 -22 8 -20 -1 -24 -9 -31 -56 -5 -30 -13 -59
-19 -65 -10 -10 -4 37 13 106 9 35 11 37 42 29 18 -4 42 -12 55 -19z"/>
<path d="M4860 3566 c0 -3 9 -10 20 -16 11 -6 20 -8 20 -6 0 3 -9 10 -20 16
-11 6 -20 8 -20 6z"/>
<path d="M5499 3599 c-11 -11 -19 -23 -16 -25 3 -3 16 6 30 20 15 14 22 26 17
26 -6 0 -19 -9 -31 -21z"/>
<path d="M5269 3606 c-3 -3 -26 -6 -52 -7 -56 -3 -79 -14 -58 -28 13 -8 13
-17 1 -66 -9 -38 -17 -52 -24 -45 -19 19 -29 10 -11 -10 10 -11 13 -20 7 -20
-6 0 -14 5 -18 11 -4 8 -11 3 -20 -12 -11 -21 -10 -25 11 -34 l23 -10 -18 -59
c-10 -32 -30 -71 -44 -85 -32 -33 -32 -39 -3 -35 59 9 117 10 117 2 0 -4 -19
-8 -42 -9 -24 -1 -54 -5 -68 -9 -15 -6 0 -6 40 -3 36 4 71 6 78 6 16 0 16 0
-9 42 -17 28 -20 45 -15 76 4 27 3 38 -4 34 -14 -9 -13 -88 2 -103 9 -9 9 -12
0 -12 -18 0 -31 43 -25 81 9 59 16 62 53 24 l34 -35 26 31 26 31 27 -50 27
-50 -23 -16 c-21 -16 -18 -16 63 -11 47 4 81 3 77 -1 -9 -9 -26 -12 -85 -15
-24 -2 -45 -6 -48 -10 -2 -5 4 -6 15 -4 11 2 49 5 85 7 36 2 66 6 66 11 0 4
-3 7 -7 7 -22 0 -64 53 -90 114 -17 37 -33 64 -36 59 -3 -5 12 -41 33 -81 21
-40 31 -67 23 -60 -9 7 -30 43 -48 80 l-33 68 24 6 c28 7 29 13 10 39 -12 17
-16 17 -30 6 -20 -17 -17 -19 -50 47 -26 50 -26 55 -11 78 14 21 16 32 4 20z
m-77 -140 c-14 -51 -14 -54 7 -75 29 -29 40 -27 12 3 -21 22 -22 27 -10 65
l12 42 24 -52 c23 -50 23 -52 6 -73 -10 -11 -19 -23 -20 -24 -1 -2 -15 11 -31
29 l-29 32 15 59 c8 32 18 56 22 53 4 -3 1 -29 -8 -59z"/>
<path d="M5282 3588 c-7 -7 -12 -18 -12 -25 0 -18 41 -105 47 -99 3 3 -5 26
-17 51 -18 37 -20 48 -10 60 16 19 8 29 -8 13z"/>
<path d="M5485 3550 c3 -5 8 -10 11 -10 2 0 4 5 4 10 0 6 -5 10 -11 10 -5 0
-7 -4 -4 -10z"/>
<path d="M4987 3530 c3 -11 9 -22 13 -25 5 -3 6 4 3 15 -3 11 -9 22 -13 25 -5
3 -6 -4 -3 -15z"/>
<path d="M6040 3492 c0 -5 -25 -26 -55 -47 -31 -21 -54 -40 -51 -42 6 -6 126
77 126 88 0 5 -4 9 -10 9 -5 0 -10 -4 -10 -8z"/>
<path d="M4993 3484 c9 -10 -21 -62 -42 -74 -24 -12 -95 -15 -138 -6 -34 8
-37 5 -47 -36 -4 -17 -2 -28 4 -28 5 0 9 3 9 8 -1 4 -1 17 0 29 1 17 6 21 24
17 42 -9 137 -4 157 8 11 7 27 27 35 44 18 38 18 44 3 44 -6 0 -9 -3 -5 -6z"/>
<path d="M5374 3458 c3 -10 9 -25 12 -33 3 -8 1 -15 -5 -15 -6 0 -11 -4 -11
-9 0 -5 9 -7 20 -4 25 7 25 5 -1 45 -12 18 -18 25 -15 16z"/>
<path d="M5254 3315 c-9 -14 -15 -28 -12 -30 2 -2 12 9 22 25 21 36 13 40 -10
5z"/>
</g>
</svg>
